<?xml version="1.0"?><svg fill="#000000" xmlns="http://www.w3.org/2000/svg"  viewBox="0 0 24 24" width="24px" height="24px">    <path d="M 7 2 C 6.448 2 6 2.448 6 3 C 6 3.552 6.448 4 7 4 L 20 4 L 20 17 C 20 17.552 20.448 18 21 18 C 21.552 18 22 17.552 22 17 L 22 4 C 22 2.895 21.105 2 20 2 L 7 2 z M 4 6 C 2.895 6 2 6.895 2 8 L 2 20 C 2 21.105 2.895 22 4 22 L 16 22 C 17.105 22 18 21.105 18 20 L 18 8 C 18 6.895 17.105 6 16 6 L 4 6 z M 10 10 C 10.552 10 11 10.448 11 11 L 11 13 L 13 13 C 13.552 13 14 13.448 14 14 C 14 14.552 13.552 15 13 15 L 11 15 L 11 17 C 11 17.552 10.552 18 10 18 C 9.448 18 9 17.552 9 17 L 9 15 L 7 15 C 6.448 15 6 14.552 6 14 C 6 13.448 6.448 13 7 13 L 9 13 L 9 11 C 9 10.448 9.448 10 10 10 z"/></svg>