<?xml version="1.0"?><svg fill="#000000" xmlns="http://www.w3.org/2000/svg"  viewBox="0 0 24 24" width="24px" height="24px">    <path d="M 16.476562 2.4511719 C 16.392047 2.4657656 16.308531 2.5061719 16.238281 2.5761719 L 14.130859 4.6835938 C 13.956859 4.8575938 13.956859 5.1394531 14.130859 5.3144531 L 16.238281 7.4238281 C 16.519281 7.7048281 17 7.5054219 17 7.1074219 L 17 6 L 20 6 L 20 9 A 1.0001 1.0001 0 1 0 22 9 L 22 6 C 22 4.9069372 21.093063 4 20 4 L 17 4 L 17 2.8925781 C 17 2.5940781 16.730109 2.4073906 16.476562 2.4511719 z M 4 5 C 2.9069372 5 2 5.9069372 2 7 L 2 14 C 2 15.093063 2.9069372 16 4 16 L 7 16 L 7 19 C 7 20.105 7.895 21 9 21 L 16 21 C 17.105 21 18 20.105 18 19 L 18 12 C 18 10.895 17.105 10 16 10 L 13 10 L 13 7 C 13 5.9069372 12.093063 5 11 5 L 4 5 z M 4 7 L 11 7 L 11 14 L 4 14 L 4 7 z"/></svg>